<?xml version="1.0" standalone="no"?>
<!DOCTYPE svg PUBLIC "-//W3C//DTD SVG 20010904//EN"
 "http://www.w3.org/TR/2001/REC-SVG-20010904/DTD/svg10.dtd">
<svg version="1.0" xmlns="http://www.w3.org/2000/svg"
 width="928.000000pt" height="928.000000pt" viewBox="0 0 928.000000 928.000000"
 preserveAspectRatio="xMidYMid meet">
<metadata>
Created by potrace 1.11, written by Peter Selinger 2001-2013
</metadata>
<g transform="translate(0.000000,928.000000) scale(0.100000,-0.100000)"
fill="#000000" stroke="none">
<path d="M4604 8459 c-38 -22 -81 -45 -96 -51 -16 -7 -28 -16 -28 -20 0 -4 -4
-8 -9 -8 -5 0 -44 -20 -85 -45 -42 -25 -80 -45 -85 -45 -5 0 -14 -7 -21 -15
-7 -8 -16 -13 -20 -10 -4 3 -10 -2 -14 -10 -3 -8 -10 -15 -16 -15 -7 0 -44
-19 -83 -42 -40 -23 -75 -41 -79 -40 -5 1 -8 -2 -8 -8 0 -5 -15 -16 -32 -24
-18 -8 -55 -29 -83 -45 -114 -68 -200 -115 -207 -113 -5 1 -8 -1 -8 -6 0 -4
-21 -19 -47 -32 -27 -14 -50 -28 -53 -31 -5 -5 -59 -36 -150 -85 -19 -11 -37
-21 -40 -24 -3 -3 -26 -17 -52 -30 -27 -14 -48 -29 -48 -33 0 -5 -4 -5 -10 -2
-5 3 -10 2 -10 -3 0 -5 -8 -12 -17 -15 -10 -3 -40 -20 -68 -36 -27 -17 -62
-36 -77 -42 -16 -6 -28 -14 -28 -18 0 -4 -16 -13 -35 -21 -19 -8 -35 -17 -35
-21 0 -4 -8 -9 -17 -13 -10 -3 -43 -20 -74 -38 -58 -35 -203 -118 -254 -146
-16 -9 -32 -19 -35 -22 -3 -3 -14 -10 -25 -16 -103 -56 -144 -80 -167 -95 -14
-11 -29 -19 -33 -19 -4 0 -27 -13 -52 -30 -24 -16 -46 -30 -49 -30 -3 0 -43
-22 -90 -50 -47 -27 -89 -50 -94 -50 -6 0 -10 -4 -10 -8 0 -4 -12 -13 -27 -20
-16 -7 -46 -23 -68 -36 -137 -80 -219 -126 -223 -126 -3 0 -13 -6 -21 -14 -9
-7 -36 -24 -61 -37 -24 -13 -52 -30 -62 -38 -9 -8 -25 -16 -35 -17 -10 -2 -19
-8 -21 -13 -2 -6 -7 -11 -11 -11 -5 0 -46 -22 -92 -48 -46 -27 -95 -55 -109
-63 -14 -8 -27 -16 -30 -19 -3 -3 -23 -15 -45 -26 l-40 -22 0 -1948 0 -1949
27 -13 c16 -7 28 -18 28 -23 0 -6 4 -8 9 -4 5 3 16 -1 24 -9 8 -8 17 -12 21
-9 3 4 6 1 6 -6 0 -7 4 -9 10 -6 5 3 10 2 10 -2 0 -8 4 -11 77 -47 21 -11 40
-23 43 -26 3 -4 30 -20 60 -36 30 -16 61 -35 68 -42 8 -7 18 -10 23 -7 5 4 9
2 9 -2 0 -5 25 -22 55 -37 32 -17 52 -34 48 -40 -3 -6 -3 -8 2 -4 9 9 145 -61
145 -74 0 -5 4 -7 8 -4 5 3 25 -6 45 -19 20 -14 41 -25 47 -25 6 0 8 -5 4 -12
-4 -7 -3 -8 5 -4 6 4 18 0 27 -8 8 -9 22 -16 30 -16 9 0 12 -5 8 -12 -4 -7 -4
-10 1 -6 7 6 60 -16 75 -32 3 -3 22 -14 43 -25 20 -11 37 -23 37 -27 0 -5 3
-8 8 -7 13 2 52 -13 52 -21 0 -4 12 -12 28 -19 15 -7 38 -20 52 -29 14 -9 29
-17 33 -17 4 0 12 -7 17 -15 5 -8 10 -11 10 -6 0 4 11 1 24 -8 48 -31 111 -67
129 -73 9 -3 17 -9 17 -13 0 -5 16 -14 35 -20 19 -6 33 -16 29 -21 -3 -5 -2
-9 3 -8 15 4 83 -31 83 -42 0 -5 5 -7 10 -4 6 3 10 1 10 -5 0 -6 4 -8 10 -5 6
3 10 2 10 -3 0 -5 8 -12 18 -16 9 -3 24 -10 32 -15 8 -6 49 -29 90 -53 41 -23
78 -46 81 -51 3 -5 10 -8 14 -6 8 3 119 -63 123 -73 2 -5 8 -6 13 -2 5 3 12
-2 15 -10 3 -9 10 -14 14 -11 5 3 16 -3 26 -12 10 -10 18 -16 18 -15 2 8 56
-22 56 -30 0 -5 5 -6 10 -3 6 3 10 1 10 -5 0 -6 5 -8 10 -5 6 3 10 1 10 -4 0
-6 5 -11 10 -11 6 0 29 -12 53 -27 23 -15 63 -38 90 -51 26 -13 47 -28 47 -33
0 -6 5 -7 10 -4 6 3 10 1 10 -6 0 -7 3 -9 6 -6 4 3 18 -3 32 -13 13 -11 31
-20 38 -20 8 0 14 -4 14 -10 0 -5 7 -10 15 -10 8 0 15 -5 15 -11 0 -5 5 -7 10
-4 6 3 10 1 10 -5 0 -6 5 -8 10 -5 6 3 10 2 10 -3 0 -4 16 -14 35 -22 19 -8
35 -17 35 -22 0 -4 6 -8 14 -8 7 0 19 -7 26 -15 7 -8 16 -12 21 -9 5 3 9 0 9
-5 0 -6 7 -11 15 -11 8 0 15 -4 15 -8 0 -5 16 -14 35 -22 19 -8 35 -18 35 -22
0 -5 4 -7 9 -3 6 3 13 -1 18 -8 4 -7 23 -19 40 -26 18 -7 30 -17 27 -22 -3 -5
-2 -8 3 -7 13 4 83 -33 83 -44 0 -5 4 -7 9 -4 5 3 19 -2 32 -12 13 -10 36 -24
51 -31 15 -8 25 -19 21 -24 -3 -6 -1 -7 5 -3 12 7 74 -21 80 -37 2 -4 8 -5 13
-1 5 3 9 1 9 -4 0 -5 18 -17 40 -27 22 -10 40 -22 40 -27 0 -4 6 -7 13 -6 6 2
11 -4 9 -12 -2 -8 -1 -12 3 -8 10 9 66 -12 59 -23 -3 -5 -2 -8 3 -7 4 1 22 -5
39 -14 29 -16 34 -16 67 0 21 9 37 20 37 24 0 4 5 8 11 8 6 0 23 9 37 19 15
10 29 18 32 18 3 0 16 6 30 15 20 13 240 140 377 219 40 23 103 60 128 77 11
6 29 16 40 22 11 5 38 21 60 35 22 13 56 33 75 43 19 11 91 52 160 92 69 40
145 84 170 97 25 14 65 38 90 53 45 28 225 131 290 166 19 10 37 21 40 24 4 4
39 24 95 54 11 6 22 13 25 16 3 3 20 13 38 22 17 10 47 26 65 35 17 10 36 24
40 31 4 6 14 12 21 12 12 0 114 56 141 77 10 8 55 33 140 79 28 15 52 30 55
33 3 4 21 15 40 25 19 9 62 33 95 53 33 19 78 45 100 57 102 58 355 202 398
228 27 15 53 28 58 28 5 0 9 5 9 12 0 6 3 8 7 5 3 -4 13 -1 22 6 9 8 70 44
136 82 66 37 128 75 138 83 9 8 17 12 17 8 0 -4 12 2 26 13 15 12 32 21 38 21
6 1 20 8 31 18 20 17 20 27 20 1952 0 1064 -4 1940 -8 1947 -4 6 -26 22 -50
35 -23 14 -118 69 -212 123 -93 54 -185 106 -202 116 -78 45 -101 58 -151 88
-29 17 -57 31 -62 31 -6 0 -10 5 -10 10 0 6 -6 10 -13 10 -7 0 -28 11 -47 23
-19 13 -55 35 -80 49 -103 58 -125 71 -135 78 -5 4 -41 25 -80 45 -38 21 -72
41 -75 44 -3 3 -30 19 -60 35 -30 16 -57 32 -60 35 -3 3 -27 17 -55 31 -27 14
-51 28 -53 33 -2 4 -8 7 -13 7 -5 0 -26 11 -47 23 -33 21 -79 48 -162 94 -14
8 -38 23 -55 33 -16 10 -52 31 -80 46 -27 14 -62 35 -77 45 -14 11 -28 19 -31
19 -4 0 -166 92 -227 130 -58 35 -195 110 -202 110 -4 0 -8 5 -8 10 0 6 -6 10
-14 10 -7 0 -19 7 -26 15 -7 8 -16 12 -21 9 -5 -3 -9 -1 -9 4 0 5 -8 12 -17
15 -10 4 -38 18 -63 33 -51 30 -103 61 -140 81 -14 8 -38 23 -55 33 -16 11
-37 23 -45 27 -8 4 -48 26 -88 50 -40 24 -77 43 -82 43 -6 0 -10 4 -10 8 0 5
-19 17 -42 28 -24 10 -49 24 -56 31 -7 7 -19 13 -27 13 -7 0 -15 3 -17 8 -3 8
-163 102 -173 102 -4 0 -25 13 -48 28 -23 16 -72 44 -108 64 l-65 36 -70 -39z"/>
</g>
</svg>
