<svg width="35" height="35" xmlns="http://www.w3.org/2000/svg" viewBox="0 0 35 35">
    <title>Facebook icon</title>
    <g>
        <path d="m28.175,5.5l-21.35,0c-0.732,0 -1.325,0.593 -1.325,1.325l0,21.351c0,0.731 0.593,1.324 1.325,1.324l11.495,0l0,-9.294l-3.128,0l0,-3.622l3.128,0l0,-2.671c0,-3.1 1.893,-4.788 4.659,-4.788c1.325,0 2.463,0.099 2.795,0.143l0,3.24l-1.918,0.001c-1.504,0 -1.795,0.715 -1.795,1.763l0,2.313l3.587,0l-0.467,3.622l-3.12,0l0,9.293l6.116,0c0.73,0 1.323,-0.593 1.323,-1.325l0,-21.35c0,-0.732 -0.593,-1.325 -1.325,-1.325z" />
    </g>
</svg>