<svg width="35" height="35" xmlns="http://www.w3.org/2000/svg" viewBox="0 0 35 35">
    <title>Github icon</title>
    <g>
        <g id="Symbols">
            <g id="components/navigation/footer/Black/desktop">
                <g id="footer">
                    <g id="bottom">
                        <path id="icon/github" d="m17.4988,4.5c-7.17775,0 -12.9988,5.96755 -12.9988,13.3294c0,5.889 3.72455,10.88445 8.89039,12.64698c0.65042,0.12274 0.88744,-0.28885 0.88744,-0.64233c0,-0.31585 -0.01117,-1.15456 -0.01755,-2.26657c-3.61602,0.80516 -4.37896,-1.78708 -4.37896,-1.78708c-0.59136,-1.53996 -1.44369,-1.9499 -1.44369,-1.9499c-1.18033,-0.82644 0.08938,-0.81008 0.08938,-0.81008c1.30483,0.0941 1.99116,1.37386 1.99116,1.37386c1.15958,2.03664 3.043,1.44831 3.7836,1.1071c0.11812,-0.86081 0.4541,-1.44832 0.8252,-1.78135c-2.88659,-0.3363 -5.92161,-1.48022 -5.92161,-6.58778c0,-1.45486 0.50677,-2.64543 1.33835,-3.5766c-0.13407,-0.33712 -0.58019,-1.69298 0.12769,-3.52751c0,0 1.09095,-0.35839 3.57451,1.36649c1.03668,-0.29621 2.14918,-0.44349 3.25449,-0.44922c1.10451,0.00573 2.21621,0.15301 3.25449,0.44922c2.48197,-1.72488 3.57132,-1.36649 3.57132,-1.36649c0.70947,1.83453 0.26336,3.19039 0.13008,3.52751c0.83318,0.93117 1.33595,2.12174 1.33595,3.5766c0,5.12065 -3.03981,6.24739 -5.93517,6.57715c0.46607,0.41158 0.88186,1.22493 0.88186,2.46868c0,1.78134 -0.01596,3.21902 -0.01596,3.65597c0,0.35676 0.23463,0.77161 0.89382,0.64151c5.16186,-1.76662 8.88321,-6.7588 8.88321,-12.64616c0,-7.36185 -5.82105,-13.3294 -13.0012,-13.3294" />
                    </g>
                </g>
            </g>
        </g>
    </g>
</svg>