<svg viewBox="-2 -2 35 35" version="1.1" xmlns="http://www.w3.org/2000/svg" xmlns:xlink="http://www.w3.org/1999/xlink" class="mb1 mr3" data-v-44e24651=""><g id="Symbols" stroke="none" stroke-width="1" data-v-44e24651=""><g id="components/navigation/footer/Black/desktop" transform="translate(-1024.000000, -483.000000)" data-v-44e24651=""><g id="footer" data-v-44e24651=""><g id="bottom" transform="translate(0.000000, 474.000000)" data-v-44e24651=""><path d="M1036.9988,9 C1029.82105,9 1024,14.9675467 1024,22.3294028 C1024,28.2183968 1027.72455,33.2138544 1032.89039,34.9763795 C1033.54081,35.0991181 1033.77783,34.6875349 1033.77783,34.334048 C1033.77783,34.0182009 1033.76666,33.1794877 1033.76028,32.0674767 C1030.14426,32.8726414 1029.38132,30.2804039 1029.38132,30.2804039 C1028.78996,28.7404447 1027.93763,28.330498 1027.93763,28.330498 C1026.7573,27.5040587 1028.02701,27.5204238 1028.02701,27.5204238 C1029.33184,27.6145233 1030.01817,28.8942769 1030.01817,28.8942769 C1031.17775,30.930918 1033.06117,30.3425914 1033.80177,30.0013784 C1033.91989,29.1405722 1034.25587,28.5530639 1034.62697,28.2200334 C1031.74038,27.8837298 1028.70536,26.7398069 1028.70536,21.6322481 C1028.70536,20.1773875 1029.21213,18.9868239 1030.04371,18.0556477 C1029.90964,17.7185259 1029.46352,16.3626744 1030.1714,14.5281428 C1030.1714,14.5281428 1031.26235,14.1697463 1033.74591,15.8946316 C1034.78259,15.5984226 1035.89509,15.4511364 1037.0004,15.4454086 C1038.10491,15.4511364 1039.21661,15.5984226 1040.25489,15.8946316 C1042.73686,14.1697463 1043.82621,14.5281428 1043.82621,14.5281428 C1044.53568,16.3626744 1044.08957,17.7185259 1043.95629,18.0556477 C1044.78947,18.9868239 1045.29224,20.1773875 1045.29224,21.6322481 C1045.29224,26.752899 1042.25243,27.8796385 1039.35707,28.209396 C1039.82314,28.6209792 1040.23893,29.4343264 1040.23893,30.6780767 C1040.23893,32.4594217 1040.22297,33.8970989 1040.22297,34.334048 C1040.22297,34.6908079 1040.4576,35.1056641 1041.11679,34.9755613 C1046.27865,33.2089449 1050,28.2167603 1050,22.3294028 C1050,14.9675467 1044.17895,9 1036.9988,9" id="icon/github" data-v-44e24651=""></path></g></g></g></g></svg>