<svg width="34" height="34" xmlns="http://www.w3.org/2000/svg" viewBox="0 0 34 34">
  <title>RSS icon</title>
    <g>
        <path d="m11.503,25.752c0,1.794 -1.456,3.248 -3.251,3.248c-1.796,0 -3.252,-1.454 -3.252,-3.248c0,-1.794 1.456,-3.248 3.252,-3.248c1.795,0.001 3.251,1.454 3.251,3.248zm-6.503,-12.572l0,4.811c6.05,0.062 10.96,4.966 11.022,11.009l4.817,0c-0.062,-8.71 -7.118,-15.758 -15.839,-15.82zm0,-3.368c10.58,0.046 19.152,8.594 19.183,19.188l4.817,0c-0.03,-13.231 -10.755,-23.954 -24,-24l0,4.812z" />
    </g>
</svg>