<svg width="24" height="24" viewBox="0 0 24 24" fill="none" xmlns="http://www.w3.org/2000/svg">
<circle cx="12" cy="12" r="12" fill="#156FF7"/>
<path d="M8 18C9.10457 18 10 17.1046 10 16C10 14.8954 9.10457 14 8 14C6.89543 14 6 14.8954 6 16C6 17.1046 6.89543 18 8 18Z" fill="#ffffff"/>
<path d="M14 17.11C14 17.346 13.9062 17.5724 13.7393 17.7393C13.5724 17.9062 13.346 18 13.11 18C12.874 18 12.6476 17.9062 12.4807 17.7393C12.3138 17.5724 12.22 17.346 12.22 17.11C12.22 15.6964 11.6584 14.3407 10.6589 13.3411C9.65931 12.3416 8.3036 11.78 6.89 11.78C6.77312 11.78 6.65739 11.757 6.54941 11.7123C6.44143 11.6675 6.34332 11.602 6.26068 11.5193C6.17803 11.4367 6.11247 11.3386 6.06775 11.2306C6.02302 11.1226 6 11.0069 6 10.89C6 10.7731 6.02302 10.6574 6.06775 10.5494C6.11247 10.4414 6.17803 10.3433 6.26068 10.2607C6.34332 10.178 6.44143 10.1125 6.54941 10.0677C6.65739 10.023 6.77312 10 6.89 10C8.77569 10 10.5841 10.7491 11.9175 12.0825C13.2509 13.4159 14 15.2243 14 17.11Z" fill="#ffffff"/>
<path d="M18 17.08C17.9762 17.3087 17.8685 17.5205 17.6976 17.6745C17.5268 17.8285 17.305 17.9137 17.075 17.9137C16.845 17.9137 16.6232 17.8285 16.4524 17.6745C16.2815 17.5205 16.1738 17.3087 16.15 17.08C16.1474 14.6329 15.1741 12.2867 13.4437 10.5563C11.7133 8.82594 9.36713 7.85265 6.92 7.85C6.69126 7.82618 6.47945 7.71846 6.32548 7.54763C6.17151 7.3768 6.0863 7.15498 6.0863 6.925C6.0863 6.69502 6.17151 6.4732 6.32548 6.30237C6.47945 6.13154 6.69126 6.02382 6.92 6C8.37504 6 9.81584 6.28659 11.1601 6.84341C12.5044 7.40024 13.7259 8.21638 14.7547 9.24526C15.7836 10.2741 16.5998 11.4956 17.1566 12.8399C17.7134 14.1842 18 15.625 18 17.08Z" fill="#ffffff"/>
</svg>
