<svg height="34" viewBox="0 0 34 34" width="34" xmlns="http://www.w3.org/2000/svg"><path d="m13.0553 25.6358c8.0155 0 12.4015-6.647 12.4015-12.4015 0-.187 0-.374-.0085-.561.85-.612 1.5895-1.3855 2.176-2.261-.782.3485-1.6235.578-2.5075.6885.901-.5355 1.5895-1.39403 1.921-2.41403-.8415.5015-1.7765.8585-2.771 1.054-.799-.85-1.9295-1.377-3.179-1.377-2.4055 0-4.3605 1.95503-4.3605 4.36053 0 .34.0425.6715.1105.9945-3.621-.1785-6.834-1.921-8.98449-4.55603-.374.646-.5865 1.39403-.5865 2.19303 0 1.513.7735 2.8475 1.938 3.6295-.714-.0255-1.3855-.221-1.972-.544v.0595c0 2.108 1.5045 3.876 3.49349 4.2755-.3655.102-.74799.153-1.14749.153-.2805 0-.5525-.0255-.816-.0765.5525 1.734 2.16749 2.992 4.07149 3.026-1.496 1.173-3.37449 1.87-5.41449 1.87-.3485 0-.697-.017-1.037-.0595 1.921 1.224 4.21599 1.9465 6.67249 1.9465z"/></svg>