<svg width="24" height="24" xmlns="http://www.w3.org/2000/svg" viewBox="0 0 24 24">
    <title>Twitter icon</title>
    <g>
        <path d="m8.26558,20.49562c8.0155,0 12.4015,-6.647 12.4015,-12.4015c0,-0.187 0,-0.374 -0.0085,-0.561c0.85,-0.612 1.5895,-1.3855 2.176,-2.261c-0.782,0.3485 -1.6235,0.578 -2.5075,0.6885c0.901,-0.5355 1.5895,-1.39403 1.921,-2.41403c-0.8415,0.5015 -1.7765,0.8585 -2.771,1.054c-0.799,-0.85 -1.9295,-1.377 -3.179,-1.377c-2.4055,0 -4.3605,1.95503 -4.3605,4.36053c0,0.34 0.0425,0.6715 0.1105,0.9945c-3.621,-0.1785 -6.834,-1.921 -8.98449,-4.55603c-0.374,0.646 -0.5865,1.39403 -0.5865,2.19303c0,1.513 0.7735,2.8475 1.938,3.6295c-0.714,-0.0255 -1.3855,-0.221 -1.972,-0.544l0,0.0595c0,2.108 1.5045,3.876 3.49349,4.2755c-0.3655,0.102 -0.74799,0.153 -1.14749,0.153c-0.2805,0 -0.5525,-0.0255 -0.816,-0.0765c0.5525,1.734 2.16749,2.992 4.07149,3.026c-1.496,1.173 -3.37449,1.87 -5.41449,1.87c-0.3485,0 -0.697,-0.017 -1.037,-0.0595c1.921,1.224 4.21599,1.9465 6.67249,1.9465z" />
    </g>
</svg>