<svg width="32" height="32" xmlns="http://www.w3.org/2000/svg" viewBox="0 0 32 32">
    <title>Youtube icon</title>
    <g>
        <path d="m24.53603,16.609c0,1.395 -0.175,2.787 -0.175,2.787s-0.174,1.133 -0.696,1.656c-0.61,0.696 -1.395,0.696 -1.742,0.696c-2.352,0.175 -5.923,0.175 -5.923,0.175s-4.442,0 -5.748,-0.175c-0.349,-0.086 -1.22,-0.086 -1.916,-0.696c-0.523,-0.523 -0.697,-1.656 -0.697,-1.656s-0.174,-1.392 -0.174,-2.787l0,-1.306c0,-1.394 0.174,-2.787 0.174,-2.787s0.174,-1.132 0.697,-1.655c0.61,-0.696 1.393,-0.696 1.741,-0.696c2.352,-0.175 5.923,-0.175 5.923,-0.175s3.571,0 5.923,0.175c0.347,0 1.045,0 1.742,0.696c0.522,0.523 0.696,1.655 0.696,1.655s0.175,1.393 0.175,2.787l0,1.306zm-10.279,1.569l4.616,-2.352l-4.616,-2.44l0,4.792zm-11.67,-2.178c0,7.404 6.009,13.413 13.412,13.413c7.403,0 13.413,-6.01 13.413,-13.413c0.088,-7.404 -6.009,-13.413 -13.412,-13.413c-7.403,0 -13.413,6.01 -13.413,13.413z" />
    </g>
</svg>