<svg fill="none" height="128" viewBox="0 0 128 128" width="128" xmlns="http://www.w3.org/2000/svg"><g fill="#16161f"><path d="m30.05.285683-24.91475 14.374417c-.70848.421-.72816 1.4635 0 1.8845l58.42955 34.4423c.6495.3809 1.4564.3809 2.1058 0l24.9344-14.4144c.7085-.421.7085-1.4635 0-1.8845l-58.4493-34.402317c-.6494-.3809107-1.4563-.3809107-2.1057 0z"/><path d="m96.666.526725-24.9935 14.414475c-.7085.421-.7282 1.4635 0 1.8845l25.2296 14.8555c.6495.3809 1.4563.3809 2.1058.0201l25.0131-14.3944c.709-.4211.728-1.4635 0-1.8846l-25.2493-14.875527c-.6494-.38091-1.4563-.400958-2.1057-.020048z"/><path d="m67.09 58.4854-.1378 29.3502c0 .822.866 1.3632 1.5744.9422l25.4265-14.655c.3345-.2005.5313-.5413.5313-.9423l.1378-29.9716c0-.822-.8659-1.3633-1.5744-.9423l-24.8754 14.3343c-.6495.401-1.0627 1.1026-1.0824 1.8845z"/><path d="m101.471 37.3944 24.954-14.3743c.709-.401 1.594.1203 1.575.9422l-.315 68.4237c0 .7818-.413 1.4835-1.083 1.8644l-58.2521 33.6006c-.7085.401-1.5941-.121-1.5744-.942l.1378-29.3507c0-.7818.4133-1.4835 1.0824-1.8644l31.2517-17.9831c.6691-.3809 1.0826-1.1026 1.0826-1.8845l.078-36.5473c0-.7819.414-1.4836 1.063-1.8846z"/><path d="m61.4209 58.3442-.2558 29.9717c0 .6215-.6691 1.0024-1.2005.7017l-30.6416-18.0231c-.7084-.421-1.594.1002-1.594.9222l-.1575 35.3043c0 .822-.8856 1.343-1.594.922l-24.91479-14.6748c-.669112-.3809-1.06271-1.1026-1.06271-1.8645l.314878-68.6441c0-.822.885592-1.3432 1.594072-.9222l58.44925 34.4424c.6691.3608 1.0824 1.0825 1.0627 1.8644z"/><path d="m35.0494 80.7983 25.0525 14.7753c.6494.3809 1.0627 1.1027 1.0627 1.8845l-.1575 29.4709c0 .822-.8856 1.343-1.594.922l-25.0525-14.776c-.6495-.38-1.0628-1.102-1.0628-1.884l.1575-29.4505c0-.842.8856-1.3632 1.5941-.9422z"/></g></svg>